<svg width="200" height="200" viewBox="0 0 200 200" xmlns="http://www.w3.org/2000/svg">
  <defs>
    <linearGradient id="mainGradient" x1="0%" y1="0%" x2="100%" y2="100%">
      <stop offset="0%" style="stop-color:#4EF5E7;stop-opacity:1" />
      <stop offset="100%" style="stop-color:#4EF5E7;stop-opacity:0.8" />
    </linearGradient>
    <filter id="glow">
      <feGaussianBlur stdDeviation="3" result="coloredBlur"/>
      <feMerge> 
        <feMergeNode in="coloredBlur"/>
        <feMergeNode in="SourceGraphic"/>
      </feMerge>
    </filter>
  </defs>
  
  <!-- Background circle -->
  <circle cx="100" cy="100" r="95" fill="#060514" stroke="#4EF5E7" stroke-width="2"/>
  
  <!-- Inner decorative elements -->
  <circle cx="100" cy="100" r="75" fill="none" stroke="#4EF5E7" stroke-width="1" opacity="0.3"/>
  
  <!-- R letter -->
  <g transform="translate(55, 60)">
    <path d="M0 0 L0 80 M0 0 L25 0 Q35 0 35 15 Q35 25 30 30 L35 40 L25 40 L20 30 L0 30 M0 15 L25 15" 
          stroke="#4EF5E7" 
          stroke-width="4" 
          fill="none" 
          stroke-linecap="round" 
          stroke-linejoin="round"
          filter="url(#glow)"/>
  </g>
  
  <!-- H letter -->
  <g transform="translate(110, 60)">
    <path d="M0 0 L0 80 M35 0 L35 80 M0 40 L35 40" 
          stroke="#4EF5E7" 
          stroke-width="4" 
          fill="none" 
          stroke-linecap="round" 
          stroke-linejoin="round"
          filter="url(#glow)"/>
  </g>
  
  <!-- Decorative dots -->
  <circle cx="50" cy="50" r="2" fill="#4EF5E7" opacity="0.6"/>
  <circle cx="150" cy="50" r="2" fill="#4EF5E7" opacity="0.6"/>
  <circle cx="50" cy="150" r="2" fill="#4EF5E7" opacity="0.6"/>
  <circle cx="150" cy="150" r="2" fill="#4EF5E7" opacity="0.6"/>
  

</svg>